<svg xmlns="http://www.w3.org/2000/svg" width="300" height="36.546" viewBox="0 0 300 36.546">
    <defs>
        <style>
            .cls-1{fill:#fff}.cls-2{fill:#444}
        </style>
    </defs>
    <g id="Group_611" data-name="Group 611" transform="translate(-204.645 -475.275)">
        <g id="Group_609" data-name="Group 609">
            <path id="Path_429" d="M224.071 492.082a4.092 4.092 0 0 1-.642.643 1.419 1.419 0 0 1-.881.238 1.891 1.891 0 0 1-.988-.262q-.441-.262-.988-.583a7.55 7.55 0 0 0-1.286-.584 5.55 5.55 0 0 0-1.833-.261 5.13 5.13 0 0 0-2.345.5 4.338 4.338 0 0 0-1.63 1.428 6.516 6.516 0 0 0-.953 2.273 13.609 13.609 0 0 0-.309 3.036 9.243 9.243 0 0 0 1.369 5.451 4.391 4.391 0 0 0 3.773 1.9 5.284 5.284 0 0 0 2.036-.321 6.212 6.212 0 0 0 1.273-.715q.523-.391.964-.726a1.785 1.785 0 0 1 1.107-.333 1.524 1.524 0 0 1 1.333.643l2.143 2.642a11.678 11.678 0 0 1-2.4 2.131 12.055 12.055 0 0 1-2.583 1.285 13.3 13.3 0 0 1-2.655.643 19.555 19.555 0 0 1-2.6.179 11.142 11.142 0 0 1-4.321-.857 10.589 10.589 0 0 1-3.618-2.488 11.905 11.905 0 0 1-2.476-4.011 15.026 15.026 0 0 1-.917-5.428 15.247 15.247 0 0 1 .8-4.988 11.326 11.326 0 0 1 2.356-4.017 10.956 10.956 0 0 1 3.856-2.678 13.511 13.511 0 0 1 5.321-.976 12.976 12.976 0 0 1 5.1.928 12.238 12.238 0 0 1 3.952 2.714z" class="cls-1" data-name="Path 429"/>
            <path id="Path_430" d="M248.854 486.226v24.687h-4.571a1.735 1.735 0 0 1-1.809-1.238l-.429-1.428a14.2 14.2 0 0 1-1.476 1.249 8.966 8.966 0 0 1-1.631.953 9.685 9.685 0 0 1-1.88.619 10.147 10.147 0 0 1-2.2.226 8.642 8.642 0 0 1-3.583-.7 7.367 7.367 0 0 1-2.631-1.964 8.584 8.584 0 0 1-1.619-2.976 12.314 12.314 0 0 1-.547-3.762v-15.666h7.38v15.664a4.3 4.3 0 0 0 .833 2.833 3.008 3.008 0 0 0 2.452 1 5.153 5.153 0 0 0 2.274-.512 9.158 9.158 0 0 0 2.059-1.392v-17.593z" class="cls-1" data-name="Path 430"/>
            <path id="Path_431" d="M251.472 510.913v-24.687h4.571a1.735 1.735 0 0 1 1.809 1.238l.4 1.333a13.476 13.476 0 0 1 1.286-1.179 8.251 8.251 0 0 1 1.44-.928 7.8 7.8 0 0 1 3.63-.845 5.8 5.8 0 0 1 3.7 1.154 7.2 7.2 0 0 1 2.226 3.083 7.313 7.313 0 0 1 1.512-1.952 8.129 8.129 0 0 1 1.928-1.309 9.352 9.352 0 0 1 2.19-.738 11.338 11.338 0 0 1 2.3-.238 10.43 10.43 0 0 1 3.761.631 7.152 7.152 0 0 1 2.75 1.833 7.909 7.909 0 0 1 1.678 2.952 12.734 12.734 0 0 1 .571 3.963v15.689h-7.38v-15.689q0-3.832-3.285-3.832a3.373 3.373 0 0 0-2.488.988 3.852 3.852 0 0 0-.988 2.844v15.689h-7.38v-15.689a4.217 4.217 0 0 0-.833-2.975 3.267 3.267 0 0 0-2.452-.857 4.134 4.134 0 0 0-1.892.452 6.878 6.878 0 0 0-1.679 1.214v17.855z" class="cls-1" data-name="Path 431"/>
            <path id="Path_432" d="M311.75 486.226v24.687h-4.571a1.736 1.736 0 0 1-1.809-1.238l-.429-1.428a14.2 14.2 0 0 1-1.476 1.249 8.992 8.992 0 0 1-1.63.953 9.717 9.717 0 0 1-1.881.619 10.147 10.147 0 0 1-2.2.226 8.645 8.645 0 0 1-3.583-.7 7.367 7.367 0 0 1-2.631-1.964 8.584 8.584 0 0 1-1.619-2.976 12.313 12.313 0 0 1-.547-3.762v-15.666h7.38v15.664a4.3 4.3 0 0 0 .833 2.833 3.009 3.009 0 0 0 2.452 1 5.15 5.15 0 0 0 2.274-.512 9.158 9.158 0 0 0 2.059-1.392v-17.593z" class="cls-1" data-name="Path 432"/>
            <path id="Path_433" d="M321.748 475.275v35.638h-7.38v-35.638z" class="cls-1" data-name="Path 433"/>
            <path id="Path_434" d="M346.507 486.226v24.687h-4.571a1.735 1.735 0 0 1-1.809-1.238l-.429-1.428a14.2 14.2 0 0 1-1.476 1.249 8.967 8.967 0 0 1-1.631.953 9.684 9.684 0 0 1-1.88.619 10.147 10.147 0 0 1-2.2.226 8.642 8.642 0 0 1-3.583-.7 7.367 7.367 0 0 1-2.631-1.964 8.583 8.583 0 0 1-1.619-2.976 12.314 12.314 0 0 1-.547-3.762v-15.666h7.38v15.664a4.3 4.3 0 0 0 .833 2.833 3.007 3.007 0 0 0 2.452 1 5.145 5.145 0 0 0 2.273-.512 9.164 9.164 0 0 0 2.06-1.392v-17.593z" class="cls-1" data-name="Path 434"/>
            <path id="Path_435" d="M364.813 491.63a1.89 1.89 0 0 1-.607.642 1.581 1.581 0 0 1-.821.191 2.617 2.617 0 0 1-1.047-.226l-1.131-.488a12.3 12.3 0 0 0-1.369-.488 6.1 6.1 0 0 0-1.738-.226 3.674 3.674 0 0 0-2.154.535 1.727 1.727 0 0 0-.75 1.488 1.489 1.489 0 0 0 .488 1.143 4.473 4.473 0 0 0 1.3.8 17.681 17.681 0 0 0 1.833.655q1.023.309 2.1.69a18.691 18.691 0 0 1 2.1.893 7.854 7.854 0 0 1 1.833 1.262 5.64 5.64 0 0 1 1.3 1.821 6.172 6.172 0 0 1 .488 2.571 8.465 8.465 0 0 1-.667 3.381 7.169 7.169 0 0 1-1.988 2.666 9.4 9.4 0 0 1-3.261 1.738 14.716 14.716 0 0 1-4.464.619 13.639 13.639 0 0 1-2.523-.238 17.435 17.435 0 0 1-2.44-.643 13.316 13.316 0 0 1-2.179-.964 9.491 9.491 0 0 1-1.714-1.2l1.714-2.714a2.185 2.185 0 0 1 .726-.75 2.119 2.119 0 0 1 1.131-.274 2.325 2.325 0 0 1 1.155.286l1.107.619a9.242 9.242 0 0 0 1.392.619 6.057 6.057 0 0 0 2.012.285 5.114 5.114 0 0 0 1.452-.178 2.573 2.573 0 0 0 .953-.488 1.92 1.92 0 0 0 .69-1.476 1.6 1.6 0 0 0-.5-1.214 4.344 4.344 0 0 0-1.309-.822 16.155 16.155 0 0 0-1.845-.643q-1.037-.3-2.107-.678a16.937 16.937 0 0 1-2.107-.917 7.232 7.232 0 0 1-1.845-1.357 6.279 6.279 0 0 1-1.309-2.011 7.421 7.421 0 0 1-.5-2.881 7.5 7.5 0 0 1 .607-2.987 6.915 6.915 0 0 1 1.821-2.488 8.93 8.93 0 0 1 3.047-1.7 13.16 13.16 0 0 1 4.285-.631 13.75 13.75 0 0 1 2.583.238 13.287 13.287 0 0 1 2.345.666 11.247 11.247 0 0 1 2 1.012 9.662 9.662 0 0 1 1.6 1.274z" class="cls-1" data-name="Path 435"/>
            <path id="Path_436" d="M424.052 484.864a16.327 16.327 0 0 1 4.2.472 7.917 7.917 0 0 1 2.875 1.36 5.409 5.409 0 0 1 1.66 2.15 7.248 7.248 0 0 1 .535 2.857 5.709 5.709 0 0 1-.29 1.814 5.283 5.283 0 0 1-.889 1.623 6.421 6.421 0 0 1-1.505 1.352 8.786 8.786 0 0 1-2.141 1q5.678 1.124 5.678 5.931a7.32 7.32 0 0 1-.617 3.039 6.643 6.643 0 0 1-1.8 2.367 8.3 8.3 0 0 1-2.9 1.542 12.994 12.994 0 0 1-3.918.544h-9.378v-26.051zm-4.626 3.03v8.525h4.444a6.529 6.529 0 0 0 4.236-1.152 4.4 4.4 0 0 0 .064-6.357 6.76 6.76 0 0 0-4.118-1.016zm5.442 19.953a8.056 8.056 0 0 0 2.513-.344 4.7 4.7 0 0 0 1.7-.944 3.589 3.589 0 0 0 .97-1.424 5.1 5.1 0 0 0 .309-1.8 3.763 3.763 0 0 0-1.343-3.057 6.421 6.421 0 0 0-4.154-1.116h-5.442v8.689z" class="cls-1" data-name="Path 436"/>
            <path id="Path_437" d="M447.47 507.811a7.05 7.05 0 0 0 2.793-.526 5.829 5.829 0 0 0 2.086-1.478 6.547 6.547 0 0 0 1.306-2.268 8.867 8.867 0 0 0 .454-2.911v-15.764h3.846v15.764a11.971 11.971 0 0 1-.726 4.226 9.415 9.415 0 0 1-5.387 5.569 12.375 12.375 0 0 1-8.744 0 9.415 9.415 0 0 1-5.387-5.569 11.971 11.971 0 0 1-.726-4.226v-15.764h3.864v15.746a9.141 9.141 0 0 0 .444 2.92 6.438 6.438 0 0 0 1.3 2.277 5.846 5.846 0 0 0 2.086 1.478 7.059 7.059 0 0 0 2.791.526z" class="cls-1" data-name="Path 437"/>
            <path id="Path_438" d="M481.79 510.913h-3.447a1.609 1.609 0 0 1-1.5-.816l-6.44-9.034a1.925 1.925 0 0 0-.671-.644 2.423 2.423 0 0 0-1.089-.19h-2.521v10.684h-3.864v-26.049h7.51a16.072 16.072 0 0 1 4.344.517 8.45 8.45 0 0 1 3.012 1.47 5.848 5.848 0 0 1 1.759 2.294 7.619 7.619 0 0 1 .572 3.012 7.722 7.722 0 0 1-.418 2.557 6.712 6.712 0 0 1-1.224 2.15 7.7 7.7 0 0 1-1.968 1.641 9.614 9.614 0 0 1-2.63 1.052 4 4 0 0 1 1.251 1.216zm-12.154-13.5a8.6 8.6 0 0 0 2.621-.363 5.314 5.314 0 0 0 1.9-1.025 4.2 4.2 0 0 0 1.143-1.578 5.214 5.214 0 0 0 .381-2.022 4.023 4.023 0 0 0-1.479-3.393 7.193 7.193 0 0 0-4.435-1.142h-3.646v9.523z" class="cls-1" data-name="Path 438"/>
            <path id="Path_439" d="M504.645 484.864v26.049h-1.959a1.565 1.565 0 0 1-.752-.163 2.217 2.217 0 0 1-.608-.526L486.615 491.2c.024.327.045.647.063.962s.027.61.027.888v17.868h-3.392v-26.054h2a1.9 1.9 0 0 1 .761.118 1.665 1.665 0 0 1 .563.535l14.747 19.047c-.036-.351-.063-.692-.081-1.025s-.028-.644-.028-.934v-17.741z" class="cls-1" data-name="Path 439"/>
        </g>
        <g id="Group_610" data-name="Group 610">
            <path id="Path_440" d="M410.834 503.319a8.509 8.509 0 0 1-8.5 8.5h-23.81a8.5 8.5 0 1 1 0-17.005 8.38 8.38 0 0 1 5.243 1.828 8.972 8.972 0 0 1 13.321 0 8.4 8.4 0 0 1 5.243-1.828 8.51 8.51 0 0 1 8.503 8.505zm-3.394-.007a5.108 5.108 0 0 0-5.1-5.1 5.049 5.049 0 0 0-4.081 2.076l-1.594 2.14-1.268-2.345a5.606 5.606 0 0 0-9.927.007l-1.269 2.345-1.594-2.14a5.093 5.093 0 1 0-4.081 8.127h23.807a5.119 5.119 0 0 0 5.107-5.11zm-29.313-10.721a12.71 12.71 0 0 1-.17-1.955c0-3.841 3.883-10.21 9.353-15.092a41.707 41.707 0 0 1 5.527 5.966 32.435 32.435 0 0 1 3.131-3.217c4.039 3.6 6.93 9.487 6.93 12.343a11.891 11.891 0 0 1-.17 1.955c-.135-.007-.262-.042-.4-.042a10.615 10.615 0 0 0-3.217.51 8.568 8.568 0 0 0 .383-2.423c0-1.233-1.353-4.556-3.614-7.454-.155.17-.3.34-.453.517l-2.749 3.245-2.558-3.394a36.281 36.281 0 0 0-2.8-3.266c-3.734 4-5.966 8.24-5.966 10.352a8.568 8.568 0 0 0 .383 2.423 10.615 10.615 0 0 0-3.217-.51c-.131 0-.258.035-.393.042zm17.565-5.186c.22.375.418.737.6 1.091a7.088 7.088 0 0 1 .525 4.953 11.061 11.061 0 0 0-12.96.127 7.4 7.4 0 0 1-.354-2.218c0-2.118 1.29-3.982 3.854-7.163.369.439 5.343 5.52 5.343 5.52z" class="cls-2" data-name="Path 440"/>
        </g>
    </g>
</svg>
